<?xml version="1.0" encoding="UTF-8"?>
<svg version="1.1" xmlns="http://www.w3.org/2000/svg" width="201" height="145">
<path d="M0 0 C3.5625 0.5 3.5625 0.5 6.0625 2.625 C7.94470875 6.23256677 7.54624021 7.60839042 6.5625 11.5 C5.1706543 14.02270508 5.1706543 14.02270508 3.38671875 16.51953125 C2.39961914 17.91836548 2.39961914 17.91836548 1.39257812 19.34545898 C0.68552734 20.32458252 -0.02152344 21.30370605 -0.75 22.3125 C-1.46607422 23.3219165 -2.18214844 24.33133301 -2.91992188 25.37133789 C-4.38051831 27.4287564 -5.84552167 29.48305354 -7.31494141 31.53417969 C-9.84622985 35.07111228 -12.35048015 38.62652001 -14.85229492 42.18432617 C-17.04042466 45.29448317 -19.23863097 48.39742912 -21.4375 51.5 C-19.1275 51.83 -16.8175 52.16 -14.4375 52.5 C-14.52 51.613125 -14.6025 50.72625 -14.6875 49.8125 C-14.37452206 45.66554232 -13.51911282 44.26554997 -10.4375 41.5 C-6.6875 40.6875 -6.6875 40.6875 -3.4375 40.5 C-3.9325 39.63375 -3.9325 39.63375 -4.4375 38.75 C-5.4375 36.5 -5.4375 36.5 -5.4375 32.5 C-4.715625 32.5825 -3.99375 32.665 -3.25 32.75 C-0.27347739 32.7467361 -0.27347739 32.7467361 2.0625 30.5 C4.5625 28.5 4.5625 28.5 7.375 28.25 C8.4578125 28.37375 8.4578125 28.37375 9.5625 28.5 C9.93173077 33.91538462 9.93173077 33.91538462 8.0625 36.875 C7.5675 37.41125 7.0725 37.9475 6.5625 38.5 C7.985625 39.3971875 7.985625 39.3971875 9.4375 40.3125 C12.5625 42.5 12.5625 42.5 14.5625 45.5 C14.64155064 47.83199388 14.65048769 50.16832622 14.5625 52.5 C15.2225 52.17 15.8825 51.84 16.5625 51.5 C17.36295663 48.80941402 18.0579659 46.16781273 18.6875 43.4375 C18.86925781 42.67888672 19.05101562 41.92027344 19.23828125 41.13867188 C19.68706584 39.26086265 20.12573336 37.38064085 20.5625 35.5 C27.59514333 36.77022979 34.36374472 38.51216318 41.1875 40.625 C42.09628906 40.90214844 43.00507813 41.17929687 43.94140625 41.46484375 C46.14977959 42.13897877 48.35673163 42.81739977 50.5625 43.5 C50.2325 46.14 49.9025 48.78 49.5625 51.5 C50.31015625 51.51417969 51.0578125 51.52835938 51.828125 51.54296875 C59.86489771 51.93218418 59.86489771 51.93218418 63.25 54.6875 C64.79977632 58.00844925 65.17840977 59.88153007 64.5625 63.5 C62.56452906 66.16396125 61.220515 67.30048724 58.02505493 68.2693634 C55.35890817 69.27697459 55.35890817 69.27697459 54.48788452 71.89530945 C54.27709259 72.90011856 54.06630066 73.90492767 53.84912109 74.94018555 C53.59891205 76.07864426 53.348703 77.21710297 53.09091187 78.39006042 C52.71719955 80.2446563 52.71719955 80.2446563 52.3359375 82.13671875 C51.9166905 84.07425301 51.49743712 86.01178592 51.0778141 87.94923878 C50.49453203 90.66874346 49.93129737 93.39225738 49.36773682 96.11590576 C48.38195942 100.86243299 47.36755518 105.60289177 46.34902954 110.34248352 C45.80908659 112.86481524 45.27777951 115.38901504 44.75619507 117.91520691 C41.63615453 132.68003645 41.63615453 132.68003645 37.67878723 136.15325928 C32.88376745 138.22548431 28.24442982 137.92531305 23.07446289 137.90405273 C21.91294205 137.91091599 20.7514212 137.91777924 19.55470276 137.92485046 C15.71472962 137.94315354 11.87516366 137.93927578 8.03515625 137.93359375 C6.04081179 137.93700126 4.04646714 137.94041634 2.05212492 137.94494683 C-4.21684119 137.95898386 -10.485671 137.9574378 -16.75463867 137.94604492 C-23.21393165 137.93456528 -29.67280934 137.9486382 -36.13204759 137.9754414 C-41.68551677 137.99762 -47.23885579 138.00423093 -52.79236609 137.99836498 C-56.10583933 137.99499918 -59.41898794 137.99909866 -62.73243523 138.01461601 C-66.42862753 138.02948658 -70.12390477 138.01887633 -73.82006836 138.00170898 C-75.45906097 138.01621094 -75.45906097 138.01621094 -77.13116455 138.03100586 C-83.1799995 137.97215174 -86.899621 137.66185621 -91.4375 133.5 C-94.72812925 126.84754658 -95.87357367 119.48253498 -97.35546875 112.25 C-97.61757645 110.99614502 -97.87968414 109.74229004 -98.1497345 108.45043945 C-98.83979192 105.14375161 -99.52436736 101.83602777 -100.20623779 98.52764893 C-100.9056351 95.1411633 -101.612318 91.7561992 -102.31835938 88.37109375 C-103.69807117 81.7487668 -105.07056698 75.12497576 -106.4375 68.5 C-107.55125 68.20609375 -108.665 67.9121875 -109.8125 67.609375 C-113.4375 66.5 -113.4375 66.5 -115.4375 64.75 C-116.85301857 61.56508322 -116.46808927 59.79788566 -115.4375 56.5 C-113.83203125 54.328125 -113.83203125 54.328125 -111.4375 52.5 C-107.984375 52.109375 -107.984375 52.109375 -104.1875 52.25 C-102.92421875 52.28609375 -101.6609375 52.3221875 -100.359375 52.359375 C-99.39515625 52.40578125 -98.4309375 52.4521875 -97.4375 52.5 C-97.62973145 51.83468262 -97.82196289 51.16936523 -98.02001953 50.48388672 C-98.88520111 47.45232003 -99.72401418 44.41405341 -100.5625 41.375 C-100.86542969 40.32828125 -101.16835937 39.2815625 -101.48046875 38.203125 C-101.75761719 37.18476562 -102.03476563 36.16640625 -102.3203125 35.1171875 C-102.71307373 33.71895752 -102.71307373 33.71895752 -103.11376953 32.29248047 C-103.52785586 28.7205955 -103.07008657 26.70360833 -101.4375 23.5 C-98.91894531 22.08447266 -98.91894531 22.08447266 -95.765625 21.1640625 C-94.62609375 20.82246094 -93.4865625 20.48085938 -92.3125 20.12890625 C-91.11625 19.79761719 -89.92 19.46632813 -88.6875 19.125 C-86.91632813 18.59326172 -86.91632813 18.59326172 -85.109375 18.05078125 C-79.76242281 16.49125353 -75.05365958 15.13004346 -69.4375 15.5 C-65.09117268 18.18177643 -64.42973907 22.27251163 -63.30859375 26.9609375 C-63.10363281 27.88132812 -62.89867187 28.80171875 -62.6875 29.75 C-62.46707031 30.68585937 -62.24664062 31.62171875 -62.01953125 32.5859375 C-61.47926191 34.88795467 -60.95246061 37.19221354 -60.4375 39.5 C-60.41768066 38.75314941 -60.39786133 38.00629883 -60.37744141 37.23681641 C-60.28241789 33.86584395 -60.17264741 30.49551071 -60.0625 27.125 C-60.0315625 25.949375 -60.000625 24.77375 -59.96875 23.5625 C-59.93007812 22.44101562 -59.89140625 21.31953125 -59.8515625 20.1640625 C-59.8201416 19.12717285 -59.7887207 18.0902832 -59.75634766 17.02197266 C-59.4375 14.5 -59.4375 14.5 -57.4375 12.5 C-52.8175 12.5 -48.1975 12.5 -43.4375 12.5 C-43.4375 25.7 -43.4375 38.9 -43.4375 52.5 C-38.81059153 49.72385492 -37.72117676 48.94716001 -35.4375 44.5 C-37.0875 44.5 -38.7375 44.5 -40.4375 44.5 C-40.4375 37.9 -40.4375 31.3 -40.4375 24.5 C-35.4875 24.5 -30.5375 24.5 -25.4375 24.5 C-24.9425 26.975 -24.9425 26.975 -24.4375 29.5 C-23.97601563 28.79617187 -23.51453125 28.09234375 -23.0390625 27.3671875 C-19.15748888 21.49112942 -15.20328646 15.67848409 -11.125 9.9375 C-10.49489014 9.04490479 -10.49489014 9.04490479 -9.85205078 8.13427734 C-4.50773485 0.65567052 -4.50773485 0.65567052 0 0 Z M-89.4375 39.5 C-90.92834832 43.97254497 -90.92834832 48.02745503 -89.4375 52.5 C-88.7775 52.5 -88.1175 52.5 -87.4375 52.5 C-87.54449219 51.90832031 -87.65148437 51.31664063 -87.76171875 50.70703125 C-88.74115838 44.25115495 -88.74115838 44.25115495 -87.25 40.5625 C-85.28352923 38.32479189 -84.30644103 37.29692806 -81.4375 36.5 C-75.33572307 36.61299587 -72.68179722 38.46274167 -68.4375 42.5 C-68.9998951 39.23810844 -69.8515505 37.58865152 -72.4375 35.5 C-79.93059213 33.00230262 -84.14973371 33.95429389 -89.4375 39.5 Z M-68.4375 42.5 C-69.0975 45.8 -69.7575 49.1 -70.4375 52.5 C-69.4475 52.17 -68.4575 51.84 -67.4375 51.5 C-67.4375 48.53 -67.4375 45.56 -67.4375 42.5 C-67.7675 42.5 -68.0975 42.5 -68.4375 42.5 Z M-38.4375 56.5 C-38.7675 58.15 -39.0975 59.8 -39.4375 61.5 C-37.54570797 62.1814823 -37.54570797 62.1814823 -35.4375 62.5 C-34.7775 61.84 -34.1175 61.18 -33.4375 60.5 C-33.7560177 58.39179203 -33.7560177 58.39179203 -34.4375 56.5 C-35.7575 56.5 -37.0775 56.5 -38.4375 56.5 Z M-100.4375 67.5 C-97.66472928 96.06576297 -97.66472928 96.06576297 -85.66075802 131.20739174 C-83.0888845 132.702686 -81.61911744 132.87692387 -78.6622467 132.88095093 C-77.70476028 132.8894104 -76.74727386 132.89786987 -75.76077271 132.90658569 C-74.71702484 132.900513 -73.67327698 132.89444031 -72.59790039 132.88818359 C-71.4934407 132.89344055 -70.38898102 132.89869751 -69.25105286 132.90411377 C-65.59561064 132.91733079 -61.94060299 132.9085687 -58.28515625 132.8984375 C-55.7469423 132.90045788 -53.20872892 132.90336902 -50.67051697 132.90713501 C-45.34839827 132.91156081 -40.02643558 132.90540535 -34.7043457 132.89111328 C-28.55696084 132.87479527 -22.40987461 132.8800694 -16.26249701 132.8965925 C-10.34326642 132.91186392 -4.42412837 132.91022545 1.49511909 132.9014473 C4.01133834 132.89944495 6.5275652 132.90190574 9.04377556 132.90888596 C12.56055795 132.91649979 16.07676624 132.9048959 19.59350586 132.88818359 C21.15609131 132.89729263 21.15609131 132.89729263 22.75024414 132.90658569 C29.67872228 132.90734513 29.67872228 132.90734513 35.5625 129.5 C36.86239033 126.68512083 36.86239033 126.68512083 37.546875 123.26953125 C37.77972198 122.29956963 37.77972198 122.29956963 38.01727295 121.31001282 C38.55388236 119.04447957 39.05815351 116.77292381 39.5625 114.5 C39.9774968 112.69556616 40.39356453 110.89137838 40.81054688 109.08740234 C41.94363651 104.14760724 43.04599757 99.20150407 44.13671875 94.25219727 C44.82142453 91.14702688 45.51194582 88.04318835 46.203125 84.93945312 C46.64096304 82.96361654 47.07847551 80.98770778 47.515625 79.01171875 C47.72181458 78.08477707 47.92800415 77.15783539 48.14044189 76.20280457 C48.32773865 75.35043716 48.5150354 74.49806976 48.70800781 73.61987305 C48.87359192 72.87013718 49.03917603 72.12040131 49.20977783 71.34794617 C49.62499593 69.48612894 49.62499593 69.48612894 49.5625 67.5 C0.0625 67.5 -49.4375 67.5 -100.4375 67.5 Z " fill="#7A3B86" transform="translate(126.4375,3.5)"/>
<path d="M0 0 C6.6 0 13.2 0 20 0 C21.80388954 5.41166862 23.45976288 10.48094621 24.7890625 15.96875 C25.09070313 17.19851562 25.39234375 18.42828125 25.703125 19.6953125 C26.16839466 21.61553558 26.63365881 23.53576 27.09863281 25.45605469 C27.55514282 27.33596858 28.01578211 29.21487825 28.4765625 31.09375 C28.74549316 32.20427734 29.01442383 33.31480469 29.29150391 34.45898438 C29.75242055 36.91615778 29.75242055 36.91615778 31 38 C30.98428955 36.91900024 30.98428955 36.91900024 30.96826172 35.81616211 C30.92646285 32.52331079 30.90059812 29.2305155 30.875 25.9375 C30.85824219 24.80376953 30.84148437 23.67003906 30.82421875 22.50195312 C30.74421978 8.78212894 30.74421978 8.78212894 34.875 3.6875 C41.00345456 -1.17921391 47.43345281 -0.57740166 55 0 C58.82794514 0.97909488 61.71229923 2.80819948 65 5 C65.29296875 8.2578125 65.29296875 8.2578125 65.1875 12.125 C65.14689453 14.04699219 65.14689453 14.04699219 65.10546875 16.0078125 C65.07066406 16.99523437 65.03585938 17.98265625 65 19 C62.68756208 19.02685412 60.3750373 19.04632841 58.0625 19.0625 C56.77472656 19.07410156 55.48695312 19.08570312 54.16015625 19.09765625 C51 19 51 19 50 18 C49.95907063 15.66702567 49.95758277 13.33294775 50 11 C49.01 11 48.02 11 47 11 C47 19.91 47 28.82 47 38 C47.99 37.67 48.98 37.34 50 37 C50.495 32.05 50.495 32.05 51 27 C55.62 27 60.24 27 65 27 C65 32.61 65 38.22 65 44 C56.98206515 48.58167706 50.08422201 50.85083278 40.83203125 48.43359375 C37.68595584 47.15235622 35.14665234 45.65174701 33 43 C32.67 44.65 32.34 46.3 32 48 C25.07 48 18.14 48 11 48 C11 44.7 11 41.4 11 38 C11.66 38 12.32 38 13 38 C13 37.01 13 36.02 13 35 C10.69 35 8.38 35 6 35 C6 35.99 6 36.98 6 38 C6.66 38 7.32 38 8 38 C8 41.3 8 44.6 8 48 C2.06 48 -3.88 48 -10 48 C-10.25936561 41.86168053 -9.92165496 37.50322596 -7.89331055 31.75415039 C-6.00055613 25.91863179 -4.72083206 19.90482294 -3.3125 13.9375 C-2.98930001 12.58129252 -2.66573498 11.22517199 -2.34179688 9.86914062 C-1.55761971 6.58027819 -0.77831678 3.29025423 0 0 Z M9 16 C8.67 19.3 8.34 22.6 8 26 C8.99 26 9.98 26 11 26 C10.67 22.7 10.34 19.4 10 16 C9.67 16 9.34 16 9 16 Z " fill="#0D0D0D" transform="translate(54,79)"/>
<path d="M0 0 C0.721875 0.0825 1.44375 0.165 2.1875 0.25 C2.55673077 5.66538462 2.55673077 5.66538462 0.6875 8.625 C0.1925 9.16125 -0.3025 9.6975 -0.8125 10.25 C0.13625 10.848125 1.085 11.44625 2.0625 12.0625 C5.1875 14.25 5.1875 14.25 7.1875 17.25 C7.26655064 19.58199388 7.27548769 21.91832622 7.1875 24.25 C7.8475 23.92 8.5075 23.59 9.1875 23.25 C9.98795663 20.55941402 10.6829659 17.91781273 11.3125 15.1875 C11.49425781 14.42888672 11.67601562 13.67027344 11.86328125 12.88867188 C12.31206584 11.01086265 12.75073336 9.13064085 13.1875 7.25 C20.22014333 8.52022979 26.98874472 10.26216318 33.8125 12.375 C34.72128906 12.65214844 35.63007813 12.92929687 36.56640625 13.21484375 C38.77477959 13.88897877 40.98173163 14.56739977 43.1875 15.25 C42.8575 17.89 42.5275 20.53 42.1875 23.25 C42.93515625 23.26417969 43.6828125 23.27835938 44.453125 23.29296875 C52.48989771 23.68218418 52.48989771 23.68218418 55.875 26.4375 C57.42477632 29.75844925 57.80340977 31.63153007 57.1875 35.25 C55.40878584 37.60044371 54.01474697 38.89152631 51.3125 40.0625 C49.1875 40.25 49.1875 40.25 46.59066772 39.76881409 C42.57991827 39.15737396 38.65667105 39.11789229 34.61181641 39.13647461 C33.77213318 39.13632858 32.93244995 39.13618256 32.06732178 39.1360321 C29.30787521 39.13672555 26.54849719 39.14449126 23.7890625 39.15234375 C21.86949704 39.15420995 19.9499311 39.1556329 18.03036499 39.15663147 C12.9899564 39.16044075 7.94957684 39.17025743 2.90917969 39.18133545 C-2.2389283 39.19158377 -7.38704099 39.19613641 -12.53515625 39.20117188 C-22.62761689 39.21188116 -32.72005603 39.22893846 -42.8125 39.25 C-42.39772903 38.77292099 -41.98295807 38.29584198 -41.55561829 37.80430603 C-41.01301865 37.17657791 -40.47041901 36.54884979 -39.91137695 35.90209961 C-39.37285599 35.2806456 -38.83433502 34.65919159 -38.27949524 34.01890564 C-36.65096454 32.05522024 -35.33359893 29.98436111 -34 27.8125 C-32.20771225 25.33197375 -31.46014669 24.38718625 -28.43359375 23.74609375 C-26.17108982 23.74963444 -24.04478311 23.8928347 -21.8125 24.25 C-21.93625 22.9196875 -21.93625 22.9196875 -22.0625 21.5625 C-21.74952206 17.41554232 -20.89411282 16.01554997 -17.8125 13.25 C-14.0625 12.4375 -14.0625 12.4375 -10.8125 12.25 C-11.1425 11.6725 -11.4725 11.095 -11.8125 10.5 C-12.8125 8.25 -12.8125 8.25 -12.8125 4.25 C-12.090625 4.3325 -11.36875 4.415 -10.625 4.5 C-7.64847739 4.4967361 -7.64847739 4.4967361 -5.3125 2.25 C-2.8125 0.25 -2.8125 0.25 0 0 Z " fill="#E4A64D" transform="translate(133.8125,31.75)"/>
<path d="M0 0 C11.55 0 23.1 0 35 0 C35.495 8.91 35.495 8.91 36 18 C33.03 18.33 30.06 18.66 27 19 C27 22.3 27 25.6 27 29 C24.03 29 21.06 29 18 29 C18 31.64 18 34.28 18 37 C19.485 36.505 19.485 36.505 21 36 C21.33 34.02 21.66 32.04 22 30 C26.62 30 31.24 30 36 30 C36 35.94 36 41.88 36 48 C24.12 48 12.24 48 0 48 C0 44.7 0 41.4 0 38 C0.66 38 1.32 38 2 38 C1.86189095 33.52055965 1.71322584 29.04153217 1.5625 24.5625 C1.52318359 23.28310547 1.48386719 22.00371094 1.44335938 20.68554688 C1.40146484 19.47060547 1.35957031 18.25566406 1.31640625 17.00390625 C1.27974854 15.87799072 1.24309082 14.7520752 1.20532227 13.59204102 C1.28781955 11.07146559 1.28781955 11.07146559 0 10 C0 6.7 0 3.4 0 0 Z M18 11 C18 13.64 18 16.28 18 19 C19.32 18.67 20.64 18.34 22 18 C21.67 16.02 21.34 14.04 21 12 C20.01 11.67 19.02 11.34 18 11 Z " fill="#0F0F0F" transform="translate(120,79)"/>
<path d="M0 0 C3.5625 0.5 3.5625 0.5 6.0625 2.625 C7.94470875 6.23256677 7.54624021 7.60839042 6.5625 11.5 C5.1706543 14.02270508 5.1706543 14.02270508 3.38671875 16.51953125 C2.39961914 17.91836548 2.39961914 17.91836548 1.39257812 19.34545898 C0.68552734 20.32458252 -0.02152344 21.30370605 -0.75 22.3125 C-1.46607422 23.3219165 -2.18214844 24.33133301 -2.91992188 25.37133789 C-4.38051831 27.4287564 -5.84552167 29.48305354 -7.31494141 31.53417969 C-9.84622985 35.07111228 -12.35048015 38.62652001 -14.85229492 42.18432617 C-17.04042466 45.29448317 -19.23863097 48.39742912 -21.4375 51.5 C-21.7675 50.84 -22.0975 50.18 -22.4375 49.5 C-23.9225 49.995 -23.9225 49.995 -25.4375 50.5 C-27 49.25 -27 49.25 -28.4375 47.5 C-28.125 45.3125 -28.125 45.3125 -27.4375 43.5 C-28.0975 43.17 -28.7575 42.84 -29.4375 42.5 C-29.1075 41.18 -28.7775 39.86 -28.4375 38.5 C-27.4475 38.5 -26.4575 38.5 -25.4375 38.5 C-24.9425 35.53 -24.9425 35.53 -24.4375 32.5 C-25.0975 32.5 -25.7575 32.5 -26.4375 32.5 C-26.664375 33.180625 -26.89125 33.86125 -27.125 34.5625 C-28.18980467 36.94563425 -29.25747042 39.09926135 -30.625 41.3125 C-30.98980469 41.91707031 -31.35460937 42.52164063 -31.73046875 43.14453125 C-33.4375 44.5 -33.4375 44.5 -40.4375 44.5 C-40.4375 37.9 -40.4375 31.3 -40.4375 24.5 C-35.4875 24.5 -30.5375 24.5 -25.4375 24.5 C-25.1075 26.15 -24.7775 27.8 -24.4375 29.5 C-23.97601563 28.79617187 -23.51453125 28.09234375 -23.0390625 27.3671875 C-19.15748888 21.49112942 -15.20328646 15.67848409 -11.125 9.9375 C-10.70492676 9.34243652 -10.28485352 8.74737305 -9.85205078 8.13427734 C-4.50773485 0.65567052 -4.50773485 0.65567052 0 0 Z " fill="#784185" transform="translate(126.4375,3.5)"/>
<path d="M0 0 C2.67933432 3.91415796 3.50537094 8.03976202 4.546875 12.625 C4.76730469 13.52734375 4.98773438 14.4296875 5.21484375 15.359375 C6.14854656 19.27976691 6.796875 22.56357561 6.796875 26.625 C7.456875 26.955 8.116875 27.285 8.796875 27.625 C8.796875 30.595 8.796875 33.565 8.796875 36.625 C5.166875 36.625 1.536875 36.625 -2.203125 36.625 C-1.708125 35.635 -1.708125 35.635 -1.203125 34.625 C-0.76503782 30.33680044 -0.75385882 26.68077552 -2.453125 22.6875 C-5.51730514 19.07614483 -7.38580991 18.70283953 -12.140625 18.25 C-15.35100022 18.32786358 -16.26456977 18.66291273 -19.140625 20.4375 C-21.88053045 23.34346032 -22.18362779 25.08882674 -22.328125 29.0625 C-22.32312225 32.73538506 -22.32312225 32.73538506 -21.203125 36.625 C-24.173125 36.625 -27.143125 36.625 -30.203125 36.625 C-31.27204535 32.75699569 -32.30332842 28.87990669 -33.328125 25 C-33.63105469 23.90558594 -33.93398438 22.81117187 -34.24609375 21.68359375 C-34.52324219 20.62011719 -34.80039062 19.55664062 -35.0859375 18.4609375 C-35.34777832 17.48688965 -35.60961914 16.5128418 -35.87939453 15.50927734 C-36.28514988 11.89419912 -35.86186666 9.86401011 -34.203125 6.625 C-31.68457031 5.20947266 -31.68457031 5.20947266 -28.53125 4.2890625 C-27.39171875 3.94746094 -26.2521875 3.60585938 -25.078125 3.25390625 C-23.881875 2.92261719 -22.685625 2.59132813 -21.453125 2.25 C-19.68195312 1.71826172 -19.68195312 1.71826172 -17.875 1.17578125 C-4.40909366 -2.75177477 -4.40909366 -2.75177477 0 0 Z " fill="#DE9E47" transform="translate(59.203125,20.375)"/>
<path d="M0 0 C1.65 0.33 3.3 0.66 5 1 C2.7273958 12.6955972 0.23329196 24.33899036 -2.33398438 35.97314453 C-2.78100129 38.00471189 -3.22497248 40.03695162 -3.66601562 42.06982422 C-4.31227927 45.04807019 -4.96762093 48.0241903 -5.625 51 C-5.81884277 51.90113525 -6.01268555 52.80227051 -6.21240234 53.73071289 C-9.08305313 66.58301265 -9.08305313 66.58301265 -13.26193237 69.67199707 C-16.29725174 71.14417145 -18.1213928 71.3549802 -21.47314453 71.31054688 C-22.57826385 71.30349731 -23.68338318 71.29644775 -24.82199097 71.28918457 C-26.64647263 71.25431946 -26.64647263 71.25431946 -28.5078125 71.21875 C-30.51426498 71.19929959 -32.52071747 71.17985003 -34.52717018 71.16042328 C-36.74873702 71.135925 -38.97008697 71.10379173 -41.19152832 71.06982422 C-46.30038033 70.99269753 -51.40936081 70.94283299 -56.51855469 70.89453125 C-66.98801974 70.79247221 -77.45712197 70.66664582 -87.92626953 70.53643799 C-92.91567407 70.47478303 -97.90510371 70.41522869 -102.89453125 70.35546875 C-112.59637902 70.23897151 -122.29819802 70.12024671 -132 70 C-132 69.67 -132 69.34 -132 69 C-100.65 69 -69.3 69 -37 69 C-37 68.34 -37 67.68 -37 67 C-27.1 66.505 -27.1 66.505 -17 66 C-14.49671171 58.55907938 -14.49671171 58.55907938 -12.58959961 51.06884766 C-12.35603256 49.9980899 -12.12246552 48.92733215 -11.88182068 47.8241272 C-11.64109329 46.69880585 -11.40036591 45.5734845 -11.15234375 44.4140625 C-10.624404 41.99608173 -10.09640757 39.57811334 -9.56835938 37.16015625 C-8.74800334 33.37492247 -7.92978485 29.58923662 -7.11303711 25.80322266 C-6.31894989 22.13065815 -5.51724159 18.45981869 -4.71484375 14.7890625 C-4.47209213 13.65159576 -4.22934052 12.51412903 -3.97923279 11.3421936 C-3.7488179 10.29034882 -3.51840302 9.23850403 -3.28100586 8.15478516 C-3.08131699 7.22928864 -2.88162811 6.30379211 -2.67588806 5.35025024 C-2 3 -2 3 0 0 Z " fill="#6F4978" transform="translate(177,70)"/>
<path d="M0 0 C3.2448602 3.2448602 3.26810669 7.62496257 4.12109375 12.03125 C4.74123231 15.28996789 4.74123231 15.28996789 8 17 C10.25968325 17.29525113 10.25968325 17.29525113 12.80253601 17.24050903 C13.79111603 17.24325836 14.77969604 17.24600769 15.79823303 17.24884033 C16.88148361 17.24164978 17.96473419 17.23445923 19.08081055 17.22705078 C20.22241638 17.22734283 21.36402222 17.22763489 22.54022217 17.22793579 C26.32246439 17.22653984 30.10451084 17.21096596 33.88671875 17.1953125 C36.50559888 17.19158332 39.1244804 17.1887359 41.74336243 17.18673706 C47.93754907 17.18051903 54.13166517 17.16410388 60.32582074 17.14403808 C67.37774137 17.1216891 74.42966535 17.11068818 81.48161256 17.10064721 C95.98777811 17.07973791 110.49388807 17.04455567 125 17 C123 19 123 19 121.12060547 19.22705078 C120.00516357 19.21134033 120.00516357 19.21134033 118.8671875 19.1953125 C118.06152344 19.18886719 117.25585938 19.18242187 116.42578125 19.17578125 C115.58402344 19.15902344 114.74226563 19.14226562 113.875 19.125 C112.60076172 19.11146484 112.60076172 19.11146484 111.30078125 19.09765625 C109.20040116 19.07405647 107.10016556 19.03818483 105 19 C105 19.66 105 20.32 105 21 C102.03 21.33 99.06 21.66 96 22 C96 22.33 96 22.66 96 23 C84.36915029 23.09272133 72.73838866 23.16377603 61.10724449 23.20724869 C55.70629182 23.22811448 50.3055922 23.25641407 44.90478516 23.30175781 C39.69171286 23.34525098 34.47888382 23.36914469 29.26564407 23.37950897 C27.27772823 23.38689407 25.28982555 23.40131549 23.3020134 23.42292023 C20.51534102 23.45200018 17.72967103 23.45595406 14.94287109 23.45410156 C13.71287888 23.47567322 13.71287888 23.47567322 12.45803833 23.49768066 C7.17929354 23.45976403 4.19683559 22.48924527 0 19 C-1.20703125 17.0703125 -1.20703125 17.0703125 -1.8125 15.125 C-2.03035156 14.4340625 -2.24820313 13.743125 -2.47265625 13.03125 C-4.36708861 5.73417722 -4.36708861 5.73417722 -3 3 C-2.01 3 -1.02 3 0 3 C0 2.01 0 1.02 0 0 Z " fill="#785C87" transform="translate(35,118)"/>
<path d="M0 0 C7.03264333 1.27022979 13.80124472 3.01216318 20.625 5.125 C21.53378906 5.40214844 22.44257813 5.67929687 23.37890625 5.96484375 C25.58727959 6.63897877 27.79423163 7.31739977 30 8 C29.125 15.75 29.125 15.75 28 18 C17.77 18 7.54 18 -3 18 C-4.66285211 14.67429578 -2.98079852 11.31639055 -2.0625 7.875 C-1.86720703 7.12089844 -1.67191406 6.36679687 -1.47070312 5.58984375 C-0.98676642 3.72491694 -0.49419231 1.86223541 0 0 Z " fill="#733F7E" transform="translate(147,39)"/>
<path d="M0 0 C3.13157632 2.20056715 3.88498223 3.50158965 4.75 7.25 C4.8325 8.1575 4.915 9.065 5 10 C3.76765625 10.26554687 2.5353125 10.53109375 1.265625 10.8046875 C-2.4926492 11.63904203 -6.22417928 12.55102778 -9.953125 13.5078125 C-11.5 13.90419922 -11.5 13.90419922 -13.078125 14.30859375 C-15.20925138 14.85712259 -17.33945136 15.40926219 -19.46875 15.96484375 C-21.00789063 16.35736328 -21.00789063 16.35736328 -22.578125 16.7578125 C-23.50012695 16.9964502 -24.42212891 17.23508789 -25.37207031 17.48095703 C-27.98747408 17.997526 -30.34191536 18.09548926 -33 18 C-34.20707871 12.68885367 -34.20707871 12.68885367 -33.37792969 9.93066406 C-31.42282976 7.19130719 -29.52489275 6.82464244 -26.328125 5.859375 C-25.18859375 5.51132812 -24.0490625 5.16328125 -22.875 4.8046875 C-21.67875 4.45664062 -20.4825 4.10859375 -19.25 3.75 C-17.47882812 3.20472656 -17.47882812 3.20472656 -15.671875 2.6484375 C-5.48725771 -0.40236002 -5.48725771 -0.40236002 0 0 Z " fill="#78447E" transform="translate(57,19)"/>
<path d="M0 0 C0 2.62113708 -0.31292445 4.50935112 -1 7 C-1.99 7 -2.98 7 -4 7 C-3.835 7.598125 -3.67 8.19625 -3.5 8.8125 C-3 11 -3 11 -3 14 C-2.05021103 16.15028304 -2.05021103 16.15028304 -1 18 C-0.01 18 0.98 18 2 18 C1.4365584 22.15538182 -1.0002419 24.9796061 -3.5 28.1875 C-4.12455078 29.00637695 -4.12455078 29.00637695 -4.76171875 29.84179688 C-7.76971726 33.76971726 -7.76971726 33.76971726 -9 35 C-11.08619022 35.09417773 -13.17560477 35.11742878 -15.26391602 35.11352539 C-16.2443689 35.11374443 -16.2443689 35.11374443 -17.24462891 35.1139679 C-19.41442128 35.11326883 -21.58412879 35.10547678 -23.75390625 35.09765625 C-25.25463311 35.09579205 -26.75536057 35.09436816 -28.25608826 35.09336853 C-32.21318226 35.08954352 -36.17023978 35.0797134 -40.12731934 35.06866455 C-44.16234849 35.05845006 -48.19738353 35.05387083 -52.23242188 35.04882812 C-60.15496469 35.03809111 -68.07747781 35.0210149 -76 35 C-76 34.67 -76 34.34 -76 34 C-75.20486496 33.98969254 -74.40972992 33.97938507 -73.59049988 33.96876526 C-66.10084256 33.87082912 -58.61126847 33.76832019 -51.12174511 33.66066074 C-47.27121518 33.60547233 -43.42067759 33.55205887 -39.57006836 33.50268555 C-35.85473844 33.45498176 -32.13950036 33.40263679 -28.42428017 33.34705925 C-27.00611976 33.32666295 -25.58793419 33.30794537 -24.16972923 33.29092598 C-22.18495279 33.26682194 -20.20025845 33.2362214 -18.21557617 33.20532227 C-17.08528488 33.18977798 -15.95499359 33.1742337 -14.79045105 33.15821838 C-11.91571658 33.11747033 -11.91571658 33.11747033 -9 32 C-9 29.03 -9 26.06 -9 23 C-11.31 23 -13.62 23 -16 23 C-13.28415434 17.04825312 -10.78945223 12.54383929 -6 8 C-5.23421003 6.77209539 -4.50546108 5.52042865 -3.8125 4.25 C-2 1 -2 1 0 0 Z " fill="#723374" transform="translate(102,35)"/>
<path d="M0 0 C0.99 0 1.98 0 3 0 C4.29243536 4.1196377 5.26252625 7.66831683 5 12 C5.66 12 6.32 12 7 12 C8.02956486 16.44426922 9.04426999 20.89158141 10.0456543 25.34228516 C10.38799301 26.85426764 10.73429715 28.36535819 11.0847168 29.87548828 C11.58920602 32.05275756 12.07910515 34.23289042 12.56640625 36.4140625 C12.72468399 37.08305573 12.88296173 37.75204895 13.04603577 38.4413147 C13.95672925 42.59929909 13.96695549 45.85750661 13 50 C12.01 50 11.02 50 10 50 C9.67 50.66 9.34 51.32 9 52 C7.70305881 46.36574102 6.42196876 40.72818455 5.15478516 35.0871582 C4.72249209 33.17278655 4.28605005 31.25934649 3.84521484 29.34692383 C-0.85180334 8.9452496 -0.85180334 8.9452496 0 0 Z " fill="#715179" transform="translate(22,71)"/>
<path d="M0 0 C0.67321284 2.24805002 1.33834123 4.49852224 2 6.75 C2.556875 8.62945312 2.556875 8.62945312 3.125 10.546875 C4 14 4 14 4 18 C4.66 18.33 5.32 18.66 6 19 C6 21.97 6 24.94 6 28 C2.37 28 -1.26 28 -5 28 C-4.67 27.34 -4.34 26.68 -4 26 C-3.44665544 20.5836081 -3.49714157 16.41100691 -7 12 C-8.58245275 10.24850835 -8.58245275 10.24850835 -10 9 C-8.68 9 -7.36 9 -6 9 C-6 8.34 -6 7.68 -6 7 C-7.32 6.67 -8.64 6.34 -10 6 C-10 5.34 -10 4.68 -10 4 C-11.65 4 -13.3 4 -15 4 C-10.74244397 -0.25755603 -5.71978752 -0.09499054 0 0 Z " fill="#DAA056" transform="translate(62,29)"/>
<path d="M0 0 C4.95 0 9.9 0 15 0 C15.33 2.64 15.66 5.28 16 8 C15.34 8 14.68 8 14 8 C13.773125 8.680625 13.54625 9.36125 13.3125 10.0625 C12.24769533 12.44563425 11.18002958 14.59926135 9.8125 16.8125 C9.44769531 17.41707031 9.08289063 18.02164063 8.70703125 18.64453125 C7 20 7 20 0 20 C0 13.4 0 6.8 0 0 Z " fill="#DFAC60" transform="translate(86,28)"/>
<path d="M0 0 C21.08836207 2.08836207 21.08836207 2.08836207 26 7 C26.125 9.5 26.125 9.5 26 12 C25 13 25 13 22.01953125 13.2109375 C17.37174398 13.14208139 13.12617351 11.91283029 8.6875 10.625 C7.87732422 10.40328125 7.06714844 10.1815625 6.23242188 9.953125 C0.2632749 8.2632749 0.2632749 8.2632749 -2 6 C-1.44444444 1.44444444 -1.44444444 1.44444444 0 0 Z " fill="#735183" transform="translate(153,27)"/>
<path d="M0 0 C0.721875 0.0825 1.44375 0.165 2.1875 0.25 C2.55673077 5.66538462 2.55673077 5.66538462 0.6875 8.625 C0.1925 9.16125 -0.3025 9.6975 -0.8125 10.25 C0.1775 10.806875 1.1675 11.36375 2.1875 11.9375 C5.1875 14.25 5.1875 14.25 5.5625 17 C5.43875 17.7425 5.315 18.485 5.1875 19.25 C3.2075 20.24 3.2075 20.24 1.1875 21.25 C1.1875 19.93 1.1875 18.61 1.1875 17.25 C0.383125 17.12625 -0.42125 17.0025 -1.25 16.875 C-2.5184375 16.565625 -2.5184375 16.565625 -3.8125 16.25 C-4.1425 15.59 -4.4725 14.93 -4.8125 14.25 C-7.16849235 13.78248212 -7.16849235 13.78248212 -9.875 13.625 C-10.79410156 13.55023438 -11.71320313 13.47546875 -12.66015625 13.3984375 C-13.37042969 13.34945312 -14.08070312 13.30046875 -14.8125 13.25 C-13.4925 12.92 -12.1725 12.59 -10.8125 12.25 C-11.1425 11.6725 -11.4725 11.095 -11.8125 10.5 C-12.8125 8.25 -12.8125 8.25 -12.8125 4.25 C-11.7296875 4.37375 -11.7296875 4.37375 -10.625 4.5 C-7.64847739 4.4967361 -7.64847739 4.4967361 -5.3125 2.25 C-2.8125 0.25 -2.8125 0.25 0 0 Z " fill="#DDA24C" transform="translate(133.8125,31.75)"/>
<path d="M0 0 C1.32 0.66 2.64 1.32 4 2 C4.125 8.625 4.125 8.625 3 12 C8.445 12.495 8.445 12.495 14 13 C13.79375 11.22625 13.5875 9.4525 13.375 7.625 C13.0234375 4.6015625 13.0234375 4.6015625 13 2 C13.66 1.34 14.32 0.68 15 0 C15 4.62 15 9.24 15 14 C4.23076923 15.15384615 4.23076923 15.15384615 0 14 C-2.24707241 13.7801777 -4.49771238 13.59516013 -6.75 13.4375 C-7.92046875 13.35371094 -9.0909375 13.26992188 -10.296875 13.18359375 C-11.63492188 13.09271484 -11.63492188 13.09271484 -13 13 C-13.33 12.01 -13.66 11.02 -14 10 C-12.5839401 9.20724852 -11.16712447 8.41584688 -9.75 7.625 C-8.56664062 6.96371094 -8.56664062 6.96371094 -7.359375 6.2890625 C-5 5 -5 5 -2.765625 4.0234375 C-0.65157799 3.05837061 -0.65157799 3.05837061 0 0 Z " fill="#7B487A" transform="translate(54,44)"/>
<path d="M0 0 C3.97516753 -0.48477653 6.40570562 -0.06053541 9.6875 2.125 C13.827552 5.36941161 15.42287299 8.91346387 16.8125 13.9375 C17.04457827 17.72811178 16.38260891 20.47434729 15 24 C14.01 24.33 13.02 24.66 12 25 C11.34 24.67 10.68 24.34 10 24 C10.03480469 23.26394531 10.06960937 22.52789062 10.10546875 21.76953125 C10.28250991 15.81843219 10.28250991 15.81843219 9 10.0625 C6.12369217 7.09630755 2.77009413 5.60296164 -1 4 C-0.67 2.68 -0.34 1.36 0 0 Z " fill="#D6A66A" transform="translate(183,44)"/>
<path d="M0 0 C1.32 0.66 2.64 1.32 4 2 C3.98839844 2.67546875 3.97679687 3.3509375 3.96484375 4.046875 C3.95582031 4.93890625 3.94679688 5.8309375 3.9375 6.75 C3.92589844 7.63171875 3.91429687 8.5134375 3.90234375 9.421875 C4.00219796 12.81310848 4.00219796 12.81310848 5 16 C7.05729154 16.99199003 7.05729154 16.99199003 9.5 17.5 C11.96875 18.09375 11.96875 18.09375 14 19 C14.78125 21.09375 14.78125 21.09375 15 23 C11.44273906 24.33397285 9.28830074 23.95945249 5.9375 22.4375 C1.05081962 19.75443587 -1.28194221 16.41062257 -2.875 11.0625 C-3.02681834 7.34295075 -2.23359609 4.49518893 -1 1 C-0.67 0.67 -0.34 0.34 0 0 Z " fill="#6F5278" transform="translate(5,60)"/>
<path d="M0 0 C0 0.66 0 1.32 0 2 C4.29 2 8.58 2 13 2 C13 2.33 13 2.66 13 3 C-10.26596247 3.09924124 -33.52516085 2.82443992 -56.78894043 2.53643799 C-61.79157042 2.47487699 -66.79422368 2.41526728 -71.796875 2.35546875 C-81.53127303 2.23883465 -91.26564443 2.12012239 -101 2 C-101 1.67 -101 1.34 -101 1 C-88.71716639 0.86924322 -76.43432921 0.73882816 -64.15148735 0.60884857 C-58.44799498 0.54848231 -52.7445039 0.48799862 -47.04101562 0.42724609 C-41.53619803 0.3686141 -36.03137724 0.31029119 -30.52655411 0.25218201 C-28.42703256 0.22996514 -26.32751218 0.20763717 -24.22799301 0.18519592 C-21.2859502 0.15376819 -18.34390345 0.12273655 -15.40185547 0.09179688 C-14.53510696 0.08244614 -13.66835846 0.0730954 -12.77534485 0.0634613 C-8.51665167 0.01909079 -4.2590049 -0.01012907 0 0 Z " fill="#5B3D6C" transform="translate(146,138)"/>
<path d="M0 0 C2 2 2 2 2.125 5.625 C2.08375 6.73875 2.0425 7.8525 2 9 C2.56740906 8.98889694 3.13481812 8.97779388 3.71942139 8.96635437 C9.62398541 8.85575366 15.52825537 8.78033042 21.43359375 8.7253418 C23.63749136 8.70019426 25.84130555 8.66607173 28.04492188 8.62280273 C31.21244886 8.56216314 34.3788736 8.53379251 37.546875 8.51171875 C39.02519806 8.47300911 39.02519806 8.47300911 40.53338623 8.43351746 C47.40307207 8.43069949 47.40307207 8.43069949 50.65332031 11.53051758 C51.09772461 12.34544678 51.54212891 13.16037598 52 14 C51.67 14.66 51.34 15.32 51 16 C50.566875 15.154375 50.13375 14.30875 49.6875 13.4375 C47.27684114 10.73645181 47.27684114 10.73645181 44.35546875 10.85546875 C39.00700465 11.27037536 39.00700465 11.27037536 34 13 C29.42705794 13.07804507 24.85781287 12.90373053 20.28710938 12.75805664 C18.00927182 12.68778603 15.73141239 12.63349087 13.453125 12.58007812 C12.01038745 12.53743559 10.56767747 12.49384755 9.125 12.44921875 C7.80757812 12.41143311 6.49015625 12.37364746 5.1328125 12.3347168 C2 12 2 12 0 10 C-0.1953125 7.6171875 -0.1953125 7.6171875 -0.125 4.875 C-0.10695312 3.96492188 -0.08890625 3.05484375 -0.0703125 2.1171875 C-0.04710937 1.41851562 -0.02390625 0.71984375 0 0 Z " fill="#E3B171" transform="translate(139,47)"/>
<path d="M0 0 C3.13157632 2.20056715 3.88498223 3.50158965 4.75 7.25 C4.87375 8.61125 4.87375 8.61125 5 10 C3.56359829 10.19573608 2.12580496 10.38127816 0.6875 10.5625 C-0.11300781 10.66691406 -0.91351563 10.77132813 -1.73828125 10.87890625 C-4 11 -4 11 -7 10 C-7 9.01 -7 8.02 -7 7 C-7.99 6.67 -8.98 6.34 -10 6 C-9.67 4.35 -9.34 2.7 -9 1 C-5.68377419 -0.1054086 -3.47482175 -0.35457365 0 0 Z " fill="#81528D" transform="translate(57,19)"/>
<path d="M0 0 C2.64 0.33 5.28 0.66 8 1 C8 1.66 8 2.32 8 3 C8.66 3 9.32 3 10 3 C10.33 4.32 10.66 5.64 11 7 C10.01 7 9.02 7 8 7 C7.34 8.65 6.68 10.3 6 12 C3.03 12 0.06 12 -3 12 C-3.34833144 7.12335991 -2.41685712 4.22949995 0 0 Z " fill="#E0A245" transform="translate(116,45)"/>
<path d="M0 0 C0.69969682 2.24623699 1.38435043 4.49716414 2.0625 6.75 C2.44535156 8.00296875 2.82820313 9.2559375 3.22265625 10.546875 C4 14 4 14 3 18 C2.34 14.7 1.68 11.4 1 8 C-0.98 8.66 -2.96 9.32 -5 10 C-4.67 11.32 -4.34 12.64 -4 14 C-5.98 12.68 -7.96 11.36 -10 10 C-8.68 9.67 -7.36 9.34 -6 9 C-6 8.34 -6 7.68 -6 7 C-7.32 6.67 -8.64 6.34 -10 6 C-10 5.34 -10 4.68 -10 4 C-11.65 4 -13.3 4 -15 4 C-10.74244397 -0.25755603 -5.71978752 -0.09499054 0 0 Z " fill="#E9B66F" transform="translate(62,29)"/>
<path d="M0 0 C0 0.66 0 1.32 0 2 C1.32 2.33 2.64 2.66 4 3 C4 3.66 4 4.32 4 5 C0.88004758 5.77998811 -1.81609894 5.98737335 -5 5.8125 C-8.28770702 5.75667101 -8.94668921 5.96523209 -11.875 7.875 C-12.57625 8.57625 -13.2775 9.2775 -14 10 C-14.66 10.66 -15.32 11.32 -16 12 C-16.33 10.68 -16.66 9.36 -17 8 C-16.01 7.67 -15.02 7.34 -14 7 C-13.67 6.01 -13.34 5.02 -13 4 C-16.3 4 -19.6 4 -23 4 C-23 3.67 -23 3.34 -23 3 C-20.48279191 2.29590698 -17.96274181 1.61163944 -15.4375 0.9375 C-14.73302734 0.73833984 -14.02855469 0.53917969 -13.30273438 0.33398438 C-8.45951166 -0.93819855 -4.90847177 -1.02555455 0 0 Z " fill="#DCA15C" transform="translate(52,33)"/>
<path d="M0 0 C0 0.99 0 1.98 0 3 C0.66 3.33 1.32 3.66 2 4 C2 5.32 2 6.64 2 8 C-0.64 8.66 -3.28 9.32 -6 10 C-6.33 9.34 -6.66 8.68 -7 8 C-7.99 7.67 -8.98 7.34 -10 7 C-10 6.34 -10 5.68 -10 5 C-10.99 4.67 -11.98 4.34 -13 4 C-11.02 3.34 -9.04 2.68 -7 2 C-7 1.34 -7 0.68 -7 0 C-3.86650268 -1.04449911 -3.01031744 -0.93423645 0 0 Z " fill="#6F3B7F" transform="translate(48,22)"/>
<path d="M0 0 C0.99 0 1.98 0 3 0 C2.125 7.75 2.125 7.75 1 10 C-9.23 10 -19.46 10 -30 10 C-30 9.01 -30 8.02 -30 7 C-20.43 7 -10.86 7 -1 7 C-1 5.02 -1 3.04 -1 1 C-0.67 0.67 -0.34 0.34 0 0 Z " fill="#754265" transform="translate(174,47)"/>
<path d="M0 0 C0.66 0 1.32 0 2 0 C2 1.65 2 3.3 2 5 C2.99 4.34 3.98 3.68 5 3 C4.57910004 8.60461531 4.08386889 13.72086547 2 19 C1.67 18.34 1.34 17.68 1 17 C-0.65 17.66 -2.3 18.32 -4 19 C-2.02 9.595 -2.02 9.595 0 0 Z " fill="#75537E" transform="translate(170,96)"/>
<path d="M0 0 C0.99 0 1.98 0 3 0 C4.29243536 4.1196377 5.26252625 7.66831683 5 12 C5.66 12 6.32 12 7 12 C6.34 14.64 5.68 17.28 5 20 C1.65958146 17.09060321 0.60054901 15.35398034 0 11 C-0.06533435 9.06348981 -0.08584303 7.12497139 -0.0625 5.1875 C-0.05347656 4.21167969 -0.04445313 3.23585938 -0.03515625 2.23046875 C-0.02355469 1.49441406 -0.01195313 0.75835937 0 0 Z " fill="#67436F" transform="translate(22,71)"/>
<path d="M0 0 C0.36923077 5.41538462 0.36923077 5.41538462 -1.5 8.375 C-1.995 8.91125 -2.49 9.4475 -3 10 C-1.35 10.99 0.3 11.98 2 13 C1.01 13.495 1.01 13.495 0 14 C-2.625 13.0625 -2.625 13.0625 -5 12 C-5 10.68 -5 9.36 -5 8 C-5.66 8 -6.32 8 -7 8 C-7.66 7.34 -8.32 6.68 -9 6 C-9 3 -9 3 -7.3125 1.3125 C-4.6402007 -0.20421041 -3.02346601 -0.2519555 0 0 Z " fill="#E3BC7E" transform="translate(136,32)"/>
<path d="M0 0 C1.07310858 3.27185553 0.89263102 5.42947592 0.0625 8.75 C-0.13214844 9.54921875 -0.32679688 10.3484375 -0.52734375 11.171875 C-0.76130859 12.07679687 -0.76130859 12.07679687 -1 13 C-1.66 13 -2.32 13 -3 13 C-3.33 13.99 -3.66 14.98 -4 16 C-4.66 16 -5.32 16 -6 16 C-5.67 14.02 -5.34 12.04 -5 10 C-5.66 9.67 -6.32 9.34 -7 9 C-6.34 6.36 -5.68 3.72 -5 1 C-4.01 1 -3.02 1 -2 1 C-2 1.66 -2 2.32 -2 3 C-1.34 3 -0.68 3 0 3 C0 2.01 0 1.02 0 0 Z " fill="#6F4D78" transform="translate(177,86)"/>
<path d="M0 0 C-0.33 1.65 -0.66 3.3 -1 5 C-4.68400584 6.23104155 -7.91474976 5.90767252 -11.75 5.5625 C-12.92046875 5.46066406 -14.0909375 5.35882813 -15.296875 5.25390625 C-16.18890625 5.17011719 -17.0809375 5.08632812 -18 5 C-18 4.34 -18 3.68 -18 3 C-19.98 3 -21.96 3 -24 3 C-24 2.67 -24 2.34 -24 2 C-22.72382813 1.93941406 -21.44765625 1.87882813 -20.1328125 1.81640625 C-18.46352984 1.73200432 -16.79425963 1.64735614 -15.125 1.5625 C-14.28324219 1.52318359 -13.44148437 1.48386719 -12.57421875 1.44335938 C-11.76855469 1.40146484 -10.96289062 1.35957031 -10.1328125 1.31640625 C-9.01737061 1.26141968 -9.01737061 1.26141968 -7.87939453 1.20532227 C-4.76934017 0.86555145 -3.45689667 0 0 0 Z " fill="#634579" transform="translate(164,135)"/>
<path d="M0 0 C2.25170312 2.25170312 2.51474 3.32987578 3.1875 6.375 C3.45626953 7.53128906 3.45626953 7.53128906 3.73046875 8.7109375 C4.01304909 11.11082272 3.73503321 12.71670535 3 15 C2.34 14.01 1.68 13.02 1 12 C0.34 12 -0.32 12 -1 12 C-0.67 13.65 -0.34 15.3 0 17 C-2.38883168 14.61116832 -2.55499115 13.27192547 -3.1875 10 C-3.36667969 9.113125 -3.54585937 8.22625 -3.73046875 7.3125 C-4 5 -4 5 -3 3 C-2.01 3 -1.02 3 0 3 C0 2.01 0 1.02 0 0 Z " fill="#775A82" transform="translate(35,118)"/>
<path d="M0 0 C0.99 0 1.98 0 3 0 C5 3 5 3 4.875 6.0625 C4 9 4 9 2.4375 10.5 C-1.37112774 11.28125697 -4.29878784 10.11036365 -8 9 C-5.702779 7.25728062 -3.40133271 5.60088848 -1 4 C-0.27617533 1.94074861 -0.27617533 1.94074861 0 0 Z " fill="#E2AA59" transform="translate(186,60)"/>
<path d="M0 0 C0.99 0 1.98 0 3 0 C2.41321669 3.52069985 1.64350079 5.71299843 0 9 C-2.97 9 -5.94 9 -9 9 C-9.33 8.01 -9.66 7.02 -10 6 C-9.36191406 5.65066406 -8.72382812 5.30132812 -8.06640625 4.94140625 C-7.24011719 4.48636719 -6.41382813 4.03132813 -5.5625 3.5625 C-4.73878906 3.11003906 -3.91507813 2.65757813 -3.06640625 2.19140625 C-1.07691202 1.16337603 -1.07691202 1.16337603 0 0 Z " fill="#6A306F" transform="translate(50,48)"/>
<path d="M0 0 C-2.296537 1.1482685 -3.58313167 1.11561175 -6.1328125 1.09765625 C-6.93847656 1.09443359 -7.74414062 1.09121094 -8.57421875 1.08789062 C-9.41597656 1.07951172 -10.25773437 1.07113281 -11.125 1.0625 C-11.97449219 1.05798828 -12.82398438 1.05347656 -13.69921875 1.04882812 C-15.79950909 1.03702874 -17.8997633 1.01909306 -20 1 C-20 1.66 -20 2.32 -20 3 C-31.22 3 -42.44 3 -54 3 C-54 2.67 -54 2.34 -54 2 C-53.09644775 1.97494385 -52.19289551 1.9498877 -51.26196289 1.92407227 C-47.9203572 1.82912683 -44.57893748 1.72988379 -41.23754883 1.62768555 C-39.7893576 1.5842837 -38.34111346 1.54261256 -36.89282227 1.50268555 C-34.81510441 1.44510938 -32.73765427 1.38137972 -30.66015625 1.31640625 C-29.40855713 1.27974854 -28.15695801 1.24309082 -26.86743164 1.20532227 C-24.10369496 1.32196094 -24.10369496 1.32196094 -23 0 C-19.72304193 -0.3811199 -16.41956174 -0.47006902 -13.125 -0.625 C-12.20074219 -0.6765625 -11.27648437 -0.728125 -10.32421875 -0.78125 C-8.99197266 -0.84699219 -8.99197266 -0.84699219 -7.6328125 -0.9140625 C-6.81699707 -0.9548291 -6.00118164 -0.9955957 -5.16064453 -1.03759766 C-3 -1 -3 -1 0 0 Z " fill="#725083" transform="translate(160,136)"/>
<path d="M0 0 C3.97516753 -0.48477653 6.40570562 -0.06053541 9.6875 2.125 C12.90460066 4.64304109 14.66459423 7.07724554 16 11 C15.6875 13.375 15.6875 13.375 15 15 C14.67 13.02 14.34 11.04 14 9 C13.29875 8.9175 12.5975 8.835 11.875 8.75 C8.3096548 7.81990995 5.90984428 6.23313631 3 4 C3 3.34 3 2.68 3 2 C2.01 2 1.02 2 0 2 C0 1.34 0 0.68 0 0 Z " fill="#DEAC67" transform="translate(183,44)"/>
<path d="M0 0 C0.66 3.63 1.32 7.26 2 11 C-0.97 11 -3.94 11 -7 11 C-7 9.35 -7 7.7 -7 6 C-6.01 6.33 -5.02 6.66 -4 7 C-3.87625 6.030625 -3.7525 5.06125 -3.625 4.0625 C-3.41875 3.051875 -3.2125 2.04125 -3 1 C-1 0 -1 0 0 0 Z " fill="#D59F5F" transform="translate(36,46)"/>
<path d="M0 0 C3.96 0.33 7.92 0.66 12 1 C12 1.99 12 2.98 12 4 C13.65 4.33 15.3 4.66 17 5 C17 6.32 17 7.64 17 9 C16.01 9 15.02 9 14 9 C14 8.34 14 7.68 14 7 C12.35 7.66 10.7 8.32 9 9 C8.67 7.35 8.34 5.7 8 4 C7.34 4 6.68 4 6 4 C6 3.34 6 2.68 6 2 C3.69 2 1.38 2 -1 2 C-0.67 1.34 -0.34 0.68 0 0 Z " fill="#E7AD5C" transform="translate(118,44)"/>
<path d="M0 0 C0.69969682 2.24623699 1.38435043 4.49716414 2.0625 6.75 C2.44535156 8.00296875 2.82820313 9.2559375 3.22265625 10.546875 C3.92656828 13.6738008 4.16653785 15.09466046 3 18 C2.3299166 15.87607494 1.66403203 13.75082476 1 11.625 C0.62875 10.44164062 0.2575 9.25828125 -0.125 8.0390625 C-1 5 -1 5 -1 3 C-5.62 3.33 -10.24 3.66 -15 4 C-10.74244397 -0.25755603 -5.71978752 -0.09499054 0 0 Z " fill="#E2BB8B" transform="translate(62,29)"/>
<path d="M0 0 C0.66386719 0.144375 1.32773438 0.28875 2.01171875 0.4375 C2.89472656 0.623125 3.77773437 0.80875 4.6875 1 C5.99267578 1.2784375 5.99267578 1.2784375 7.32421875 1.5625 C10.37052758 2.13446751 10.37052758 2.13446751 15 2 C15.99 6.62 16.98 11.24 18 16 C17.34 16 16.68 16 16 16 C15.34 12.04 14.68 8.08 14 4 C13.01 4 12.02 4 11 4 C11 5.98 11 7.96 11 10 C10.67 10 10.34 10 10 10 C9.67 8.35 9.34 6.7 9 5 C7.329375 4.5978125 7.329375 4.5978125 5.625 4.1875 C2 3 2 3 0 0 Z " fill="#7E5A87" transform="translate(11,67)"/>
<path d="M0 0 C1.32 0.66 2.64 1.32 4 2 C3.67 6.29 3.34 10.58 3 15 C2.01 15 1.02 15 0 15 C-0.19601608 13.25093341 -0.38147403 11.50068154 -0.5625 9.75 C-0.66691406 8.77546875 -0.77132813 7.8009375 -0.87890625 6.796875 C-0.98974468 4.2368648 -0.77738092 2.41851841 0 0 Z " fill="#694874" transform="translate(5,60)"/>
<path d="M0 0 C4.62 0 9.24 0 14 0 C13.67 5.61 13.34 11.22 13 17 C12.67 17 12.34 17 12 17 C12 12.05 12 7.1 12 2 C8.37 2 4.74 2 1 2 C0.67 3.32 0.34 4.64 0 6 C0 4.02 0 2.04 0 0 Z " fill="#1C1C1C" transform="translate(142,109)"/>
<path d="M0 0 C2.3030887 6.56654456 3.33693273 12.03672362 3 19 C2.67 19 2.34 19 2 19 C1.81824219 17.96939453 1.81824219 17.96939453 1.6328125 16.91796875 C1.46523437 16.01691406 1.29765625 15.11585937 1.125 14.1875 C0.88136719 12.84751953 0.88136719 12.84751953 0.6328125 11.48046875 C-0.27819877 7.9095295 -1.53467341 6.29913852 -4.625 4.3125 C-5.40875 3.879375 -6.1925 3.44625 -7 3 C-5.40442685 -0.19114631 -3.35905282 0 0 0 Z " fill="#E0A855" transform="translate(63,37)"/>
<path d="M0 0 C1.28132813 0.00902344 2.56265625 0.01804688 3.8828125 0.02734375 C4.87023437 0.03894531 5.85765625 0.05054688 6.875 0.0625 C6.875 0.7225 6.875 1.3825 6.875 2.0625 C5.97136719 2.08828125 5.06773438 2.1140625 4.13671875 2.140625 C2.95722656 2.19734375 1.77773438 2.2540625 0.5625 2.3125 C-1.19513672 2.38210937 -1.19513672 2.38210937 -2.98828125 2.453125 C-6.21978682 2.76304149 -6.21978682 2.76304149 -8.04296875 5.109375 C-8.40003906 5.75390625 -8.75710938 6.3984375 -9.125 7.0625 C-10.115 6.7325 -11.105 6.4025 -12.125 6.0625 C-8.67415688 -0.05490371 -6.95651227 -0.06324102 0 0 Z " fill="#6E4C7B" transform="translate(22.125,55.9375)"/>
<path d="M0 0 C1.65 0.33 3.3 0.66 5 1 C5.33 3.64 5.66 6.28 6 9 C3.36 9 0.72 9 -2 9 C-0.68 8.67 0.64 8.34 2 8 C1.67 7.4225 1.34 6.845 1 6.25 C0 4 0 4 0 0 Z " fill="#805977" transform="translate(121,36)"/>
<path d="M0 0 C0.33 0.66 0.66 1.32 1 2 C1.66 2 2.32 2 3 2 C4.46911544 5.81970016 3.52561108 8.30641529 2 12 C1.34 12.66 0.68 13.32 0 14 C-0.39180108 12.42074025 -0.76280736 10.83631206 -1.125 9.25 C-1.33382812 8.36828125 -1.54265625 7.4865625 -1.7578125 6.578125 C-2.03088304 3.67124507 -1.53508028 2.43338652 0 0 Z " fill="#613C6C" transform="translate(168,111)"/>
<path d="M0 0 C1.485 0.99 1.485 0.99 3 2 C2.67 2.66 2.34 3.32 2 4 C2.99 3.34 3.98 2.68 5 2 C7.6875 2.375 7.6875 2.375 10 3 C9.67 4.32 9.34 5.64 9 7 C2.375 6.25 2.375 6.25 -1 4 C-0.67 2.68 -0.34 1.36 0 0 Z " fill="#674A73" transform="translate(10,77)"/>
<path d="M0 0 C3.63 0 7.26 0 11 0 C11.33 1.98 11.66 3.96 12 6 C11.34 6 10.68 6 10 6 C9.67 6.66 9.34 7.32 9 8 C8.34 6.35 7.68 4.7 7 3 C6.01 3 5.02 3 4 3 C4 2.34 4 1.68 4 1 C2.68 0.67 1.36 0.34 0 0 Z " fill="#DCA969" transform="translate(90,30)"/>
<path d="M0 0 C0.33 0.66 0.66 1.32 1 2 C0.67 2.66 0.34 3.32 0 4 C4.29 4.33 8.58 4.66 13 5 C13 5.33 13 5.66 13 6 C7.06 6.33 1.12 6.66 -5 7 C-3.35 4.69 -1.7 2.38 0 0 Z M-1 4 C-1.33 4.66 -1.66 5.32 -2 6 C-1.34 6 -0.68 6 0 6 C-0.33 5.34 -0.66 4.68 -1 4 Z " fill="#D99C55" transform="translate(98,63)"/>
<path d="M0 0 C1.67542976 0.28604898 3.34385343 0.61781233 5 1 C4.67 2.65 4.34 4.3 4 6 C3.34 5.67 2.68 5.34 2 5 C2 4.34 2 3.68 2 3 C1.34 3 0.68 3 0 3 C-0.66 5.97 -1.32 8.94 -2 12 C-3.14172142 7.43311433 -2.48651112 5.37694941 -1 1 C-0.67 0.67 -0.34 0.34 0 0 Z " fill="#875C81" transform="translate(177,70)"/>
<path d="M0 0 C0.33 0.66 0.66 1.32 1 2 C0.01 3.485 0.01 3.485 -1 5 C-1.33340471 8.04195427 -1.33340471 8.04195427 -1 11 C-0.34 11.66 0.32 12.32 1 13 C-2.34955444 14.11651815 -3.67259596 13.99822121 -7 13 C-8.8125 11.4375 -8.8125 11.4375 -10 10 C-7.69 10 -5.38 10 -3 10 C-3.0928125 8.63875 -3.0928125 8.63875 -3.1875 7.25 C-2.98327924 3.71017358 -2.35448165 2.55068845 0 0 Z " fill="#E7BB78" transform="translate(115,46)"/>
<path d="M0 0 C0.33 0 0.66 0 1 0 C1.33 2.64 1.66 5.28 2 8 C1.34 8 0.68 8 0 8 C-0.33 8.99 -0.66 9.98 -1 11 C-1.66 11 -2.32 11 -3 11 C-2.67 9.02 -2.34 7.04 -2 5 C-2.66 4.67 -3.32 4.34 -4 4 C-3.01 3.67 -2.02 3.34 -1 3 C-0.67 2.01 -0.34 1.02 0 0 Z " fill="#5F3669" transform="translate(174,91)"/>
<path d="M0 0 C3.375 0.25 3.375 0.25 7 1 C8.5 2.8125 8.5 2.8125 9 5 C8.625 7.25 8.625 7.25 8 9 C7.34 9 6.68 9 6 9 C6 7.35 6 5.7 6 4 C3.69 3.67 1.38 3.34 -1 3 C-0.67 2.01 -0.34 1.02 0 0 Z " fill="#694479" transform="translate(52,19)"/>
<path d="M0 0 C0.66 0.33 1.32 0.66 2 1 C2 1.66 2 2.32 2 3 C2.66 3 3.32 3 4 3 C3.67 4.65 3.34 6.3 3 8 C1.35 8.33 -0.3 8.66 -2 9 C-1.34 8.67 -0.68 8.34 0 8 C-0.2784375 6.2984375 -0.2784375 6.2984375 -0.5625 4.5625 C-0.7790625 2.7990625 -0.7790625 2.7990625 -1 1 C-0.67 0.67 -0.34 0.34 0 0 Z " fill="#D69F62" transform="translate(127,37)"/>
<path d="M0 0 C2.475 0.495 2.475 0.495 5 1 C4.67 3.31 4.34 5.62 4 8 C2.68 7.34 1.36 6.68 0 6 C0 4.02 0 2.04 0 0 Z " fill="#D8963F" transform="translate(28,45)"/>
<path d="M0 0 C0.33 0 0.66 0 1 0 C1 1.98 1 3.96 1 6 C1.66 5.34 2.32 4.68 3 4 C4.125 8.75 4.125 8.75 3 11 C2.34 11 1.68 11 1 11 C0.67 10.34 0.34 9.68 0 9 C-0.99 8.67 -1.98 8.34 -3 8 C-2.01 5.36 -1.02 2.72 0 0 Z " fill="#765B83" transform="translate(163,127)"/>
<path d="M0 0 C0.66 0 1.32 0 2 0 C2.66 1.65 3.32 3.3 4 5 C3.34 5 2.68 5 2 5 C1.67 6.65 1.34 8.3 1 10 C0.01 9.67 -0.98 9.34 -2 9 C-1.34 6.03 -0.68 3.06 0 0 Z " fill="#603468" transform="translate(177,73)"/>
<path d="M0 0 C0.928125 0.165 1.85625 0.33 2.8125 0.5 C5.95621353 1.07748388 5.95621353 1.07748388 9 1 C5.67692308 4.93846154 5.67692308 4.93846154 2.25 5.25 C1.5075 5.1675 0.765 5.085 0 5 C-0.33 4.34 -0.66 3.68 -1 3 C-0.67 2.01 -0.34 1.02 0 0 Z " fill="#7F498A" transform="translate(85,64)"/>
<path d="M0 0 C0.66 0 1.32 0 2 0 C2.33 0.99 2.66 1.98 3 3 C3.99 3 4.98 3 6 3 C6.33 3.99 6.66 4.98 7 6 C6 7 6 7 2.9375 7.0625 C1.4834375 7.0315625 1.4834375 7.0315625 0 7 C0 4.69 0 2.38 0 0 Z " fill="#D2974D" transform="translate(87,41)"/>
<path d="M0 0 C1.32 0 2.64 0 4 0 C4 4.62 4 9.24 4 14 C1.01520806 9.52281208 0 5.36175907 0 0 Z " fill="#D3A773" transform="translate(25,37)"/>
<path d="M0 0 C0.99 0 1.98 0 3 0 C2.125 7.875 2.125 7.875 1 9 C-0.66617115 9.04063832 -2.33388095 9.042721 -4 9 C-3.01 8.34 -2.02 7.68 -1 7 C-0.83329727 3.95826106 -0.83329727 3.95826106 -1 1 C-0.67 0.67 -0.34 0.34 0 0 Z " fill="#684470" transform="translate(174,47)"/>
<path d="M0 0 C2.62386487 3.06117568 3 3.73173127 3 8 C2.34 8.66 1.68 9.32 1 10 C-1.76223278 7.23776722 -1.57856291 4.79293383 -2 1 C-1.34 0.67 -0.68 0.34 0 0 Z " fill="#604072" transform="translate(36,129)"/>
<path d="M0 0 C0.99 0.33 1.98 0.66 3 1 C2.67 2.98 2.34 4.96 2 7 C1.01 7 0.02 7 -1 7 C-1.33 7.66 -1.66 8.32 -2 9 C-2.25 3.375 -2.25 3.375 0 0 Z " fill="#5B3D65" transform="translate(33,114)"/>
<path d="M0 0 C5.26159459 -0.64165788 7.68592849 0.79422999 11.6796875 3.90625 C12.11539063 4.2671875 12.55109375 4.628125 13 5 C12.67 5.66 12.34 6.32 12 7 C11.1646875 6.2575 11.1646875 6.2575 10.3125 5.5 C7.61837017 3.75245633 6.14624993 3.73781251 3 4 C3 3.34 3 2.68 3 2 C2.01 2 1.02 2 0 2 C0 1.34 0 0.68 0 0 Z " fill="#E1BC8C" transform="translate(183,44)"/>
<path d="M0 0 C0.185625 0.61875 0.37125 1.2375 0.5625 1.875 C2.71437233 5.05602866 5.37533763 5.19451947 9 6 C7.625 7.5 7.625 7.5 6 9 C5.34 9 4.68 9 4 9 C3.67 8.01 3.34 7.02 3 6 C1.02 6.99 1.02 6.99 -1 8 C-0.67 5.36 -0.34 2.72 0 0 Z " fill="#7A6086" transform="translate(8,72)"/>
<path d="M0 0 C-0.53625 0.103125 -1.0725 0.20625 -1.625 0.3125 C-6.07372109 1.60028768 -9.95671813 3.44950449 -13 7 C-12.06479312 3.85430413 -11.29872512 2.2489376 -8.75 0.125 C-5.39193874 -1.24875233 -3.46655157 -0.88679226 0 0 Z " fill="#93759D" transform="translate(51,40)"/>
<path d="M0 0 C0.33 0.66 0.66 1.32 1 2 C0.01 3.32 -0.98 4.64 -2 6 C-0.35 6.99 1.3 7.98 3 9 C2.01 9.495 2.01 9.495 1 10 C-1.625 9.0625 -1.625 9.0625 -4 8 C-4 6.68 -4 5.36 -4 4 C-4.66 3.67 -5.32 3.34 -6 3 C-5.195625 2.690625 -4.39125 2.38125 -3.5625 2.0625 C-1.10919595 1.23664655 -1.10919595 1.23664655 0 0 Z " fill="#E8C383" transform="translate(135,36)"/>
<path d="M0 0 C3.96 0 7.92 0 12 0 C12 0.66 12 1.32 12 2 C7.74433453 3.16063604 4.3164922 2.76173392 0 2 C0 1.34 0 0.68 0 0 Z " fill="#D2A258" transform="translate(44,36)"/>
<path d="M0 0 C1.670625 0.061875 1.670625 0.061875 3.375 0.125 C0.45735 2.0701 -1.25037285 2.57776317 -4.625 3.125 C-4.625 5.765 -4.625 8.405 -4.625 11.125 C-4.955 11.125 -5.285 11.125 -5.625 11.125 C-5.67899736 9.66707116 -5.71779177 8.20857288 -5.75 6.75 C-5.78480469 5.53183594 -5.78480469 5.53183594 -5.8203125 4.2890625 C-5.45446636 0.2354873 -3.82558513 0.13191673 0 0 Z " fill="#886798" transform="translate(72.625,15.875)"/>
<path d="M0 0 C2 1 2 1 4 3 C4.3125 5.5 4.3125 5.5 4 8 C3.01 8.66 2.02 9.32 1 10 C0.67 6.7 0.34 3.4 0 0 Z " fill="#CFAB71" transform="translate(58,43)"/>
<path d="M0 0 C0.99 0.33 1.98 0.66 3 1 C2.74438677 3.3431213 2.40729228 5.67843403 2 8 C1.01 8.495 1.01 8.495 0 9 C-1.125 2.25 -1.125 2.25 0 0 Z " fill="#60386A" transform="translate(29,96)"/>
<path d="M0 0 C0.99 0 1.98 0 3 0 C3.33 1.65 3.66 3.3 4 5 C3.34 5 2.68 5 2 5 C1.67 5.99 1.34 6.98 1 8 C0.67 8 0.34 8 0 8 C0 5.36 0 2.72 0 0 Z " fill="#5E3366" transform="translate(22,71)"/>
<path d="M0 0 C1.65 0 3.3 0 5 0 C4.67 1.65 4.34 3.3 4 5 C2.68 5 1.36 5 0 5 C0 3.35 0 1.7 0 0 Z " fill="#D69737" transform="translate(113,52)"/>
<path d="M0 0 C7.42857143 1 7.42857143 1 11 2 C10.67 2.99 10.34 3.98 10 5 C6.08788267 3.84414715 3.1254959 2.64465038 0 0 Z " fill="#815B8A" transform="translate(153,41)"/>
<path d="M0 0 C1.65 0 3.3 0 5 0 C2.33333333 2.66666667 -0.33333333 5.33333333 -3 8 C-3.33 6.68 -3.66 5.36 -4 4 C-3.01 3.67 -2.02 3.34 -1 3 C-0.67 2.01 -0.34 1.02 0 0 Z " fill="#DDAB6F" transform="translate(39,37)"/>
<path d="M0 0 C1.65 0 3.3 0 5 0 C4.34 1.65 3.68 3.3 3 5 C1.68 5 0.36 5 -1 5 C-0.67 3.35 -0.34 1.7 0 0 Z " fill="#E0A95B" transform="translate(131,34)"/>
<path d="M0 0 C1.31223496 3.93670488 0.24296256 6.12488144 -1 10 C-3 7 -3 7 -2.625 4.3125 C-2.41875 3.549375 -2.2125 2.78625 -2 2 C-1.34 2 -0.68 2 0 2 C0 1.34 0 0.68 0 0 Z " fill="#7B5B85" transform="translate(169,123)"/>
<path d="M0 0 C1.32 0.33 2.64 0.66 4 1 C3.34 3.64 2.68 6.28 2 9 C-0.29013653 5.5647952 -0.17842973 4.014669 0 0 Z " fill="#5F3868" transform="translate(25,82)"/>
<path d="M0 0 C0 2.62113708 -0.31292445 4.50935112 -1 7 C-1.99 7 -2.98 7 -4 7 C-4 7.66 -4 8.32 -4 9 C-4.66 8.67 -5.32 8.34 -6 8 C-2.25 1.125 -2.25 1.125 0 0 Z " fill="#7D3D6C" transform="translate(102,35)"/>
<path d="M0 0 C0 0.66 0 1.32 0 2 C0.66 2.33 1.32 2.66 2 3 C-2.43076923 5.09230769 -2.43076923 5.09230769 -5.3125 4.625 C-5.869375 4.41875 -6.42625 4.2125 -7 4 C-6.34 3.67 -5.68 3.34 -5 3 C-5 2.34 -5 1.68 -5 1 C-2 0 -2 0 0 0 Z " fill="#653A77" transform="translate(170,31)"/>
<path d="M0 0 C1.65 0.33 3.3 0.66 5 1 C4.67 2.32 4.34 3.64 4 5 C1.525 4.01 1.525 4.01 -1 3 C-0.67 2.01 -0.34 1.02 0 0 Z " fill="#6B5278" transform="translate(15,79)"/>
<path d="M0 0 C1.98 0.66 3.96 1.32 6 2 C5.01 2.33 4.02 2.66 3 3 C3.33 3.99 3.66 4.98 4 6 C2.68 5.67 1.36 5.34 0 5 C0 3.33333333 0 1.66666667 0 0 Z " fill="#886099" transform="translate(162,29)"/>
<path d="M0 0 C0 0.66 0 1.32 0 2 C-6.625 2.25 -6.625 2.25 -10 0 C-3.375 -1.125 -3.375 -1.125 0 0 Z " fill="#743C6A" transform="translate(41,57)"/>
<path d="M0 0 C1.32 0 2.64 0 4 0 C3.6875 1.875 3.6875 1.875 3 4 C2.01 4.66 1.02 5.32 0 6 C-0.38218767 4.34385343 -0.71395102 2.67542976 -1 1 C-0.67 0.67 -0.34 0.34 0 0 Z " fill="#70326D" transform="translate(100,53)"/>
<path d="M0 0 C0 2.97 0 5.94 0 9 C-1.54571278 6.68143083 -2.79618552 4.49361571 -4 2 C-1 0 -1 0 0 0 Z " fill="#693B78" transform="translate(83,16)"/>
<path d="M0 0 C0.66 0.33 1.32 0.66 2 1 C1.21625 1.763125 0.4325 2.52625 -0.375 3.3125 C-3.07257717 5.90891805 -3.07257717 5.90891805 -5 9 C-4.5206753 4.68607774 -3.2542015 2.83430453 0 0 Z " fill="#434343" transform="translate(91,81)"/>
<path d="M0 0 C0.66 0 1.32 0 2 0 C2.33 0.99 2.66 1.98 3 3 C2.01 3.99 1.02 4.98 0 6 C-0.99 5.67 -1.98 5.34 -3 5 C-1.625 2.5 -1.625 2.5 0 0 Z " fill="#7B4F83" transform="translate(13,57)"/>
<path d="M0 0 C0.33 0.66 0.66 1.32 1 2 C3.02463255 2.65213292 3.02463255 2.65213292 5 3 C5 3.99 5 4.98 5 6 C3.02 5.34 1.04 4.68 -1 4 C-0.67 2.68 -0.34 1.36 0 0 Z " fill="#76438C" transform="translate(53,20)"/>
<path d="M0 0 C1 2 1 2 0.0625 5.125 C-0.288125 6.07375 -0.63875 7.0225 -1 8 C-1.99 7.67 -2.98 7.34 -4 7 C-2.79618552 4.50638429 -1.54571278 2.31856917 0 0 Z " fill="#7E598B" transform="translate(120,7)"/>
<path d="" fill="#000000" transform="translate(0,0)"/>
<path d="" fill="#000000" transform="translate(0,0)"/>
<path d="" fill="#000000" transform="translate(0,0)"/>
<path d="" fill="#000000" transform="translate(0,0)"/>
<path d="" fill="#000000" transform="translate(0,0)"/>
<path d="" fill="#000000" transform="translate(0,0)"/>
<path d="" fill="#000000" transform="translate(0,0)"/>
<path d="" fill="#000000" transform="translate(0,0)"/>
<path d="" fill="#000000" transform="translate(0,0)"/>
<path d="" fill="#000000" transform="translate(0,0)"/>
<path d="" fill="#000000" transform="translate(0,0)"/>
<path d="" fill="#000000" transform="translate(0,0)"/>
<path d="" fill="#000000" transform="translate(0,0)"/>
<path d="" fill="#000000" transform="translate(0,0)"/>
<path d="" fill="#000000" transform="translate(0,0)"/>
<path d="" fill="#000000" transform="translate(0,0)"/>
<path d="" fill="#000000" transform="translate(0,0)"/>
<path d="" fill="#000000" transform="translate(0,0)"/>
<path d="" fill="#000000" transform="translate(0,0)"/>
<path d="" fill="#000000" transform="translate(0,0)"/>
<path d="" fill="#000000" transform="translate(0,0)"/>
<path d="" fill="#000000" transform="translate(0,0)"/>
<path d="" fill="#000000" transform="translate(0,0)"/>
<path d="" fill="#000000" transform="translate(0,0)"/>
<path d="" fill="#000000" transform="translate(0,0)"/>
<path d="" fill="#000000" transform="translate(0,0)"/>
<path d="" fill="#000000" transform="translate(0,0)"/>
<path d="" fill="#000000" transform="translate(0,0)"/>
<path d="" fill="#000000" transform="translate(0,0)"/>
<path d="" fill="#000000" transform="translate(0,0)"/>
<path d="" fill="#000000" transform="translate(0,0)"/>
<path d="" fill="#000000" transform="translate(0,0)"/>
<path d="" fill="#000000" transform="translate(0,0)"/>
<path d="" fill="#000000" transform="translate(0,0)"/>
<path d="" fill="#000000" transform="translate(0,0)"/>
<path d="" fill="#000000" transform="translate(0,0)"/>
<path d="" fill="#000000" transform="translate(0,0)"/>
<path d="" fill="#000000" transform="translate(0,0)"/>
<path d="" fill="#000000" transform="translate(0,0)"/>
<path d="" fill="#000000" transform="translate(0,0)"/>
<path d="" fill="#000000" transform="translate(0,0)"/>
<path d="" fill="#000000" transform="translate(0,0)"/>
<path d="" fill="#000000" transform="translate(0,0)"/>
<path d="" fill="#000000" transform="translate(0,0)"/>
<path d="" fill="#000000" transform="translate(0,0)"/>
<path d="" fill="#000000" transform="translate(0,0)"/>
<path d="" fill="#000000" transform="translate(0,0)"/>
<path d="" fill="#000000" transform="translate(0,0)"/>
<path d="" fill="#000000" transform="translate(0,0)"/>
<path d="" fill="#000000" transform="translate(0,0)"/>
<path d="" fill="#000000" transform="translate(0,0)"/>
</svg>
